<svg xmlns="http://www.w3.org/2000/svg" viewBox="0 0 1184 864" style="background:#0D0D0F">
  <!-- Background grid -->
  <defs>
    <pattern id="grid" width="40" height="40" patternUnits="userSpaceOnUse">
      <path d="M 40 0 L 0 0 0 40" fill="none" stroke="#252530" stroke-width="0.5"/>
    </pattern>
    <linearGradient id="fadeGrad" x1="0" y1="0" x2="0" y2="1">
      <stop offset="0%" stop-color="#0D0D0F" stop-opacity="0"/>
      <stop offset="100%" stop-color="#0D0D0F" stop-opacity="1"/>
    </linearGradient>
    <linearGradient id="cardGrad" x1="0" y1="0" x2="0" y2="1">
      <stop offset="0%" stop-color="#1E1B2E"/>
      <stop offset="100%" stop-color="#16161A"/>
    </linearGradient>
    <linearGradient id="violetGlow" x1="0" y1="0" x2="1" y2="1">
      <stop offset="0%" stop-color="#6D4AFF" stop-opacity="0.3"/>
      <stop offset="100%" stop-color="#6D4AFF" stop-opacity="0"/>
    </linearGradient>
  </defs>
  <rect width="1184" height="864" fill="#0D0D0F"/>
  <rect width="1184" height="864" fill="url(#grid)"/>

  <!-- Sidebar -->
  <rect x="0" y="0" width="220" height="864" fill="#111114" stroke="#252530" stroke-width="1"/>
  <!-- Logo area -->
  <rect x="20" y="20" width="36" height="36" rx="10" fill="#1A1730"/>
  <rect x="20" y="20" width="36" height="36" rx="10" stroke="#6D4AFF" stroke-width="1" stroke-opacity="0.5"/>
  <text x="38" y="43" font-family="sans-serif" font-size="14" font-weight="700" fill="#6D4AFF" text-anchor="middle">IP</text>
  <text x="66" y="34" font-family="sans-serif" font-size="12" font-weight="700" fill="white">InvoPlus</text>
  <text x="66" y="48" font-family="sans-serif" font-size="9" fill="#9898A6">Canton Network</text>

  <!-- Nav items -->
  <rect x="12" y="76" width="196" height="36" rx="8" fill="#1E1B2E" stroke="#6D4AFF" stroke-width="1" stroke-opacity="0.4"/>
  <text x="44" y="98" font-family="sans-serif" font-size="12" fill="white" font-weight="600">Overview</text>
  <rect x="22" y="86" width="14" height="14" rx="3" fill="#6D4AFF" fill-opacity="0.6"/>

  <rect x="22" y="126" width="14" height="14" rx="3" fill="#9898A6" fill-opacity="0.4"/>
  <text x="44" y="137" font-family="sans-serif" font-size="12" fill="#9898A6">Invoices</text>

  <rect x="22" y="156" width="14" height="14" rx="3" fill="#9898A6" fill-opacity="0.4"/>
  <text x="44" y="167" font-family="sans-serif" font-size="12" fill="#9898A6">Marketplace</text>

  <rect x="22" y="186" width="14" height="14" rx="3" fill="#9898A6" fill-opacity="0.4"/>
  <text x="44" y="197" font-family="sans-serif" font-size="12" fill="#9898A6">My Offers</text>

  <rect x="22" y="216" width="14" height="14" rx="3" fill="#9898A6" fill-opacity="0.4"/>
  <text x="44" y="227" font-family="sans-serif" font-size="12" fill="#9898A6">Portfolio</text>

  <!-- Canton status at bottom of sidebar -->
  <circle cx="24" cy="820" r="4" fill="#22C55E"/>
  <text x="34" y="817" font-family="sans-serif" font-size="10" fill="white">Canton DevNet</text>
  <text x="34" y="829" font-family="sans-serif" font-size="9" fill="#9898A6">Block 3,469,812</text>

  <!-- Main content area -->
  <!-- Header -->
  <rect x="220" y="0" width="964" height="56" fill="#111114" stroke="#252530" stroke-width="1"/>
  <text x="244" y="33" font-family="sans-serif" font-size="16" font-weight="700" fill="white">Overview</text>
  <rect x="1040" y="12" width="128" height="32" rx="8" fill="#6D4AFF"/>
  <text x="1104" y="32" font-family="sans-serif" font-size="11" fill="white" font-weight="600" text-anchor="middle">Connect Wallet</text>
  <circle cx="1010" cy="28" r="10" fill="#16161A" stroke="#252530" stroke-width="1"/>
  <circle cx="1010" cy="25" r="3" fill="#6D4AFF"/>

  <!-- Stats row -->
  <!-- Card 1 -->
  <rect x="236" y="76" width="212" height="100" rx="12" fill="url(#cardGrad)" stroke="#252530" stroke-width="1"/>
  <text x="256" y="106" font-family="sans-serif" font-size="11" fill="#9898A6">Available Funding</text>
  <text x="256" y="136" font-family="sans-serif" font-size="26" font-weight="700" fill="white">$2.4M</text>
  <text x="256" y="156" font-family="sans-serif" font-size="10" fill="#22C55E">↑ 18% this month</text>
  <circle cx="420" cy="100" r="18" fill="#6D4AFF" fill-opacity="0.15" stroke="#6D4AFF" stroke-width="1" stroke-opacity="0.4"/>

  <!-- Card 2 -->
  <rect x="464" y="76" width="212" height="100" rx="12" fill="url(#cardGrad)" stroke="#252530" stroke-width="1"/>
  <text x="484" y="106" font-family="sans-serif" font-size="11" fill="#9898A6">Outstanding Invoices</text>
  <text x="484" y="136" font-family="sans-serif" font-size="26" font-weight="700" fill="white">$847K</text>
  <text x="484" y="156" font-family="sans-serif" font-size="10" fill="#6D4AFF">14 active</text>

  <!-- Card 3 -->
  <rect x="692" y="76" width="212" height="100" rx="12" fill="url(#cardGrad)" stroke="#252530" stroke-width="1"/>
  <text x="712" y="106" font-family="sans-serif" font-size="11" fill="#9898A6">Avg Settlement</text>
  <text x="712" y="136" font-family="sans-serif" font-size="26" font-weight="700" fill="white">3.2s</text>
  <text x="712" y="156" font-family="sans-serif" font-size="10" fill="#22C55E">Canton atomic</text>

  <!-- Card 4 -->
  <rect x="920" y="76" width="248" height="100" rx="12" fill="url(#cardGrad)" stroke="#252530" stroke-width="1"/>
  <text x="940" y="106" font-family="sans-serif" font-size="11" fill="#9898A6">Total Financed</text>
  <text x="940" y="136" font-family="sans-serif" font-size="26" font-weight="700" fill="white">$12.8M</text>
  <text x="940" y="156" font-family="sans-serif" font-size="10" fill="#22C55E">↑ 34% YTD</text>

  <!-- Recent invoices table -->
  <rect x="236" y="196" width="576" height="300" rx="12" fill="url(#cardGrad)" stroke="#252530" stroke-width="1"/>
  <text x="256" y="224" font-family="sans-serif" font-size="13" font-weight="600" fill="white">Recent Invoices</text>

  <!-- Table header -->
  <rect x="236" y="234" width="576" height="28" fill="#16161A"/>
  <text x="256" y="252" font-family="sans-serif" font-size="10" fill="#9898A6">INVOICE</text>
  <text x="400" y="252" font-family="sans-serif" font-size="10" fill="#9898A6">DEBTOR</text>
  <text x="530" y="252" font-family="sans-serif" font-size="10" fill="#9898A6">AMOUNT</text>
  <text x="680" y="252" font-family="sans-serif" font-size="10" fill="#9898A6">STATUS</text>

  <!-- Row 1 -->
  <line x1="236" y1="262" x2="812" y2="262" stroke="#252530" stroke-width="0.5"/>
  <text x="256" y="280" font-family="sans-serif" font-size="11" fill="white">INV-2026-0042</text>
  <text x="400" y="280" font-family="sans-serif" font-size="11" fill="#9898A6">GlobalTech Ltd</text>
  <text x="530" y="280" font-family="sans-serif" font-size="11" fill="white">$125,000</text>
  <rect x="672" y="269" width="60" height="20" rx="6" fill="#22C55E" fill-opacity="0.15"/>
  <text x="702" y="283" font-family="sans-serif" font-size="10" fill="#22C55E" text-anchor="middle">Funded</text>

  <!-- Row 2 -->
  <line x1="236" y1="292" x2="812" y2="292" stroke="#252530" stroke-width="0.5"/>
  <text x="256" y="310" font-family="sans-serif" font-size="11" fill="white">INV-2026-0041</text>
  <text x="400" y="310" font-family="sans-serif" font-size="11" fill="#9898A6">Apex Manufacturing</text>
  <text x="530" y="310" font-family="sans-serif" font-size="11" fill="white">$89,500</text>
  <rect x="672" y="299" width="60" height="20" rx="6" fill="#6D4AFF" fill-opacity="0.15"/>
  <text x="702" y="313" font-family="sans-serif" font-size="10" fill="#9898A6" text-anchor="middle">Bidding</text>

  <!-- Row 3 -->
  <line x1="236" y1="322" x2="812" y2="322" stroke="#252530" stroke-width="0.5"/>
  <text x="256" y="340" font-family="sans-serif" font-size="11" fill="white">INV-2026-0040</text>
  <text x="400" y="340" font-family="sans-serif" font-size="11" fill="#9898A6">Summit Retail Group</text>
  <text x="530" y="340" font-family="sans-serif" font-size="11" fill="white">$234,000</text>
  <rect x="662" y="329" width="80" height="20" rx="6" fill="#F59E0B" fill-opacity="0.15"/>
  <text x="702" y="343" font-family="sans-serif" font-size="10" fill="#F59E0B" text-anchor="middle">Verified</text>

  <!-- Row 4 -->
  <line x1="236" y1="352" x2="812" y2="352" stroke="#252530" stroke-width="0.5"/>
  <text x="256" y="370" font-family="sans-serif" font-size="11" fill="white">INV-2026-0039</text>
  <text x="400" y="370" font-family="sans-serif" font-size="11" fill="#9898A6">NovaBuild Corp</text>
  <text x="530" y="370" font-family="sans-serif" font-size="11" fill="white">$67,200</text>
  <rect x="672" y="359" width="60" height="20" rx="6" fill="#22C55E" fill-opacity="0.15"/>
  <text x="702" y="373" font-family="sans-serif" font-size="10" fill="#22C55E" text-anchor="middle">Funded</text>

  <!-- Auction cards on right -->
  <rect x="828" y="196" width="340" height="300" rx="12" fill="url(#cardGrad)" stroke="#252530" stroke-width="1"/>
  <text x="848" y="224" font-family="sans-serif" font-size="13" font-weight="600" fill="white">Live Auctions</text>
  <circle cx="1148" cy="216" r="5" fill="#22C55E"/>
  <text x="1138" y="220" font-family="sans-serif" font-size="9" fill="#22C55E" text-anchor="end">LIVE</text>

  <!-- Auction card 1 -->
  <rect x="844" y="234" width="308" height="76" rx="8" fill="#111114" stroke="#6D4AFF" stroke-width="1" stroke-opacity="0.4"/>
  <rect x="848" y="238" width="36" height="20" rx="4" fill="#22C55E" fill-opacity="0.2"/>
  <text x="866" y="252" font-family="sans-serif" font-size="10" fill="#22C55E" text-anchor="middle" font-weight="700">A</text>
  <text x="892" y="252" font-family="sans-serif" font-size="11" font-weight="600" fill="white">INV-2026-0041</text>
  <text x="892" y="265" font-family="sans-serif" font-size="9" fill="#9898A6">Apex Manufacturing · 90 days</text>
  <text x="848" y="290" font-family="sans-serif" font-size="11" fill="#9898A6">Amount</text>
  <text x="848" y="304" font-family="sans-serif" font-size="13" font-weight="700" fill="white">$89,500</text>
  <text x="980" y="290" font-family="sans-serif" font-size="11" fill="#9898A6">Bids</text>
  <text x="980" y="304" font-family="sans-serif" font-size="13" font-weight="700" fill="white">🔒 4 sealed</text>
  <text x="1100" y="290" font-family="sans-serif" font-size="11" fill="#9898A6">Ends in</text>
  <text x="1100" y="304" font-family="sans-serif" font-size="13" font-weight="700" fill="#6D4AFF">14h 32m</text>

  <!-- Auction card 2 -->
  <rect x="844" y="320" width="308" height="76" rx="8" fill="#111114" stroke="#252530" stroke-width="1"/>
  <rect x="848" y="324" width="36" height="20" rx="4" fill="#6D4AFF" fill-opacity="0.2"/>
  <text x="866" y="338" font-family="sans-serif" font-size="10" fill="#9898A6" text-anchor="middle" font-weight="700">B+</text>
  <text x="892" y="338" font-family="sans-serif" font-size="11" font-weight="600" fill="white">INV-2026-0038</text>
  <text x="892" y="351" font-family="sans-serif" font-size="9" fill="#9898A6">Zenith Logistics · 60 days</text>
  <text x="848" y="376" font-family="sans-serif" font-size="11" fill="#9898A6">Amount</text>
  <text x="848" y="390" font-family="sans-serif" font-size="13" font-weight="700" fill="white">$312,000</text>
  <text x="980" y="376" font-family="sans-serif" font-size="11" fill="#9898A6">Bids</text>
  <text x="980" y="390" font-family="sans-serif" font-size="13" font-weight="700" fill="white">🔒 7 sealed</text>
  <text x="1100" y="376" font-family="sans-serif" font-size="11" fill="#9898A6">Ends in</text>
  <text x="1100" y="390" font-family="sans-serif" font-size="13" font-weight="700" fill="#6D4AFF">38h 12m</text>

  <!-- Canton Network footer bar -->
  <rect x="236" y="516" width="932" height="36" rx="8" fill="#111114" stroke="#6D4AFF" stroke-width="1" stroke-opacity="0.3"/>
  <circle cx="256" cy="534" r="4" fill="#22C55E"/>
  <text x="268" y="538" font-family="sans-serif" font-size="10" fill="#9898A6">Canton Network · All bids are sealed private contracts · Atomic settlement · Anti-fraud registry active</text>

  <!-- Activity chart -->
  <rect x="236" y="572" width="576" height="200" rx="12" fill="url(#cardGrad)" stroke="#252530" stroke-width="1"/>
  <text x="256" y="600" font-family="sans-serif" font-size="13" font-weight="600" fill="white">Funding Volume</text>
  <text x="256" y="614" font-family="sans-serif" font-size="10" fill="#9898A6">Last 30 days</text>
  <!-- Chart bars -->
  <rect x="270" y="700" width="20" height="50" rx="4" fill="#6D4AFF" fill-opacity="0.6"/>
  <rect x="300" y="680" width="20" height="70" rx="4" fill="#6D4AFF" fill-opacity="0.6"/>
  <rect x="330" y="660" width="20" height="90" rx="4" fill="#6D4AFF" fill-opacity="0.7"/>
  <rect x="360" y="690" width="20" height="60" rx="4" fill="#6D4AFF" fill-opacity="0.6"/>
  <rect x="390" y="650" width="20" height="100" rx="4" fill="#6D4AFF" fill-opacity="0.8"/>
  <rect x="420" y="640" width="20" height="110" rx="4" fill="#6D4AFF"/>
  <rect x="450" y="630" width="20" height="120" rx="4" fill="#6D4AFF"/>
  <rect x="480" y="620" width="20" height="130" rx="4" fill="#6D4AFF"/>
  <rect x="510" y="610" width="20" height="140" rx="4" fill="#6D4AFF"/>
  <rect x="540" y="600" width="20" height="150" rx="4" fill="#6D4AFF"/>
  <rect x="570" y="615" width="20" height="135" rx="4" fill="#6D4AFF" fill-opacity="0.9"/>
  <rect x="600" y="605" width="20" height="145" rx="4" fill="#6D4AFF"/>
  <rect x="630" y="595" width="20" height="155" rx="4" fill="#6D4AFF"/>
  <rect x="660" y="590" width="20" height="160" rx="4" fill="#6D4AFF"/>
  <rect x="690" y="580" width="20" height="170" rx="4" fill="#6D4AFF"/>
  <rect x="720" y="575" width="20" height="175" rx="4" fill="#22C55E" fill-opacity="0.9"/>
  <rect x="750" y="570" width="20" height="180" rx="4" fill="#22C55E"/>
  <line x1="256" y1="750" x2="796" y2="750" stroke="#252530" stroke-width="1"/>

  <!-- Portfolio summary right -->
  <rect x="828" y="572" width="340" height="200" rx="12" fill="url(#cardGrad)" stroke="#252530" stroke-width="1"/>
  <text x="848" y="600" font-family="sans-serif" font-size="13" font-weight="600" fill="white">Portfolio Summary</text>
  <text x="848" y="636" font-family="sans-serif" font-size="10" fill="#9898A6">Active Bids</text>
  <text x="848" y="655" font-family="sans-serif" font-size="20" font-weight="700" fill="white">12</text>
  <text x="960" y="636" font-family="sans-serif" font-size="10" fill="#9898A6">Won Auctions</text>
  <text x="960" y="655" font-family="sans-serif" font-size="20" font-weight="700" fill="#22C55E">8</text>
  <text x="1080" y="636" font-family="sans-serif" font-size="10" fill="#9898A6">Avg Yield</text>
  <text x="1080" y="655" font-family="sans-serif" font-size="20" font-weight="700" fill="#6D4AFF">11.4%</text>
  <line x1="848" y1="668" x2="1148" y2="668" stroke="#252530" stroke-width="0.5"/>
  <text x="848" y="694" font-family="sans-serif" font-size="10" fill="#9898A6">Capital Deployed</text>
  <text x="848" y="712" font-family="sans-serif" font-size="18" font-weight="700" fill="white">$1,840,000</text>
  <text x="848" y="740" font-family="sans-serif" font-size="10" fill="#9898A6">Fees Earned (platform)</text>
  <text x="848" y="756" font-family="sans-serif" font-size="18" font-weight="700" fill="#6D4AFF">$18,240</text>

  <!-- Fade overlay at bottom for visual effect -->
  <rect x="220" y="700" width="964" height="164" fill="url(#fadeGrad)"/>
</svg>
